<?xml version="1.0" standalone="no"?>
<!DOCTYPE svg PUBLIC "-//W3C//DTD SVG 20010904//EN"
 "http://www.w3.org/TR/2001/REC-SVG-20010904/DTD/svg10.dtd">
<svg version="1.0" xmlns="http://www.w3.org/2000/svg"
 width="250.000000pt" height="250.000000pt" viewBox="0 0 250.000000 250.000000"
 preserveAspectRatio="xMidYMid meet">
<metadata>
Created by potrace 1.11, written by Peter Selinger 2001-2013
</metadata>
<g transform="translate(0.000000,250.000000) scale(0.100000,-0.100000)"
fill="#000000" stroke="none">
<path d="M1078 2080 c-180 -48 -339 -91 -353 -94 -25 -6 -35 -39 -15 -51 19
-12 10 -35 -16 -45 -20 -8 -25 -15 -20 -30 3 -11 9 -28 12 -39 4 -14 -1 -19
-25 -24 -36 -8 -38 -21 -11 -62 11 -16 20 -33 20 -37 0 -4 -18 -12 -40 -18
-49 -13 -51 -32 -8 -80 l30 -35 -27 38 c-15 21 -24 44 -22 51 5 13 56 28 69
20 9 -6 113 -186 182 -316 52 -97 60 -107 81 -102 16 4 27 0 38 -16 12 -17 23
-21 46 -18 31 4 31 4 70 -96 22 -56 49 -135 61 -176 12 -41 28 -85 36 -97 12
-19 10 -32 -16 -107 -16 -47 -25 -86 -21 -86 4 0 140 82 302 182 162 99 331
203 376 231 45 27 87 55 93 62 5 7 11 48 12 91 3 76 1 83 -51 199 -114 255
-177 371 -356 653 -53 84 -61 92 -89 91 -17 0 -178 -40 -358 -89z m370 -55
c26 -40 28 -63 7 -71 -15 -6 -223 -618 -231 -683 -8 -59 13 -53 110 28 152
128 207 184 197 200 -7 11 -35 -11 -127 -100 -64 -63 -115 -107 -112 -99 61
174 198 606 198 626 0 37 7 28 75 -90 81 -141 225 -437 225 -462 0 -3 -189
-115 -300 -179 -30 -18 -99 -58 -154 -89 -54 -32 -102 -54 -106 -49 -4 4 -28
71 -54 148 -78 232 -191 485 -286 642 l-39 63 37 10 c105 31 509 138 522 139
8 0 25 -15 38 -34z m-18 -232 c0 -5 -12 -44 -26 -88 -26 -78 -44 -113 -44 -85
0 24 54 180 62 180 4 0 8 -3 8 -7z m174 -625 c14 -23 -3 -52 -33 -56 -42 -6
-67 38 -39 66 17 17 58 11 72 -10z"/>
<path d="M621 1538 c-54 -27 -56 -33 -19 -74 69 -78 241 -297 323 -412 47 -64
91 -126 100 -137 8 -11 -1 16 -20 59 -20 44 -40 85 -46 92 -6 7 -7 19 -3 25 5
8 3 9 -6 4 -10 -6 -12 -4 -7 9 4 9 3 15 -1 12 -4 -2 -27 28 -51 67 -25 40 -83
131 -129 202 -47 72 -90 139 -96 150 -11 19 -12 19 -45 3z"/>
<path d="M240 431 c0 -101 2 -112 24 -138 21 -24 32 -28 96 -31 66 -4 72 -3
68 14 -2 15 -15 20 -63 24 -76 6 -85 21 -85 148 0 85 -1 92 -20 92 -19 0 -20
-7 -20 -109z"/>
<path d="M1898 504 c-3 -35 -4 -36 -52 -40 -56 -4 -74 -16 -93 -62 -10 -25
-11 -42 -3 -72 15 -56 40 -70 127 -70 l73 0 0 140 0 140 -24 0 c-21 0 -25 -5
-28 -36z m-3 -144 l0 -65 -35 3 c-50 5 -61 19 -58 66 2 32 9 43 28 53 14 7 34
12 45 11 18 -3 20 -11 20 -68z"/>
<path d="M1990 520 c0 -15 7 -20 25 -20 18 0 25 5 25 20 0 15 -7 20 -25 20
-18 0 -25 -5 -25 -20z"/>
<path d="M1310 325 l0 -145 25 0 c23 0 25 4 25 40 l0 40 48 0 c68 1 102 34
102 100 0 76 -47 110 -152 110 l-48 0 0 -145z m136 84 c17 -14 19 -80 2 -97
-7 -7 -29 -12 -50 -12 l-38 0 0 66 0 67 36 -6 c20 -3 42 -11 50 -18z"/>
<path d="M1604 459 c-56 -16 -81 -69 -62 -135 13 -48 41 -64 115 -64 49 0 63
3 63 15 0 11 -12 15 -46 15 -51 0 -84 14 -84 35 0 12 15 15 65 15 58 0 65 2
65 20 0 18 -7 20 -65 20 -50 0 -65 3 -65 15 0 21 33 35 85 35 39 0 46 3 43 18
-4 20 -64 26 -114 11z"/>
<path d="M1990 366 l0 -106 25 0 26 0 -3 103 c-3 97 -4 102 -25 105 -23 3 -23
2 -23 -102z"/>
<path d="M2080 451 c0 -19 5 -21 59 -21 41 0 65 -5 75 -16 27 -27 18 -34 -42
-34 -72 0 -102 -18 -102 -64 0 -49 14 -56 112 -56 l88 0 0 83 c0 108 -10 118
-115 125 -71 4 -75 4 -75 -17z m148 -133 c-3 -20 -9 -23 -53 -23 -44 0 -50 3
-53 23 -3 21 0 22 53 22 53 0 56 -1 53 -22z"/>
<path d="M475 435 c-34 -33 -35 -103 -2 -141 20 -23 34 -28 85 -32 52 -4 62
-2 62 12 0 12 -10 16 -48 16 -48 0 -72 12 -72 37 0 9 17 13 60 13 53 0 60 2
60 20 0 18 -7 20 -60 20 -46 0 -60 3 -60 15 0 21 32 35 79 35 30 0 41 4 41 15
0 12 -13 15 -60 15 -51 0 -65 -4 -85 -25z"/>
<path d="M680 445 c0 -12 13 -15 58 -15 32 0 63 -5 70 -12 26 -26 12 -36 -53
-40 -71 -4 -80 -10 -90 -50 -5 -19 -1 -32 14 -47 18 -18 33 -21 107 -21 l86 0
-3 86 c-5 107 -12 114 -116 114 -58 0 -73 -3 -73 -15z m138 -128 c3 -28 3 -28
-50 -25 -46 3 -53 6 -56 25 -4 24 14 32 68 30 30 -2 35 -6 38 -30z"/>
<path d="M910 360 c0 -93 1 -100 20 -100 18 0 20 7 20 85 l0 85 30 0 c25 0 30
-4 30 -25 0 -18 5 -25 20 -25 14 0 20 7 20 24 0 50 -8 56 -76 56 l-64 0 0
-100z"/>
<path d="M1090 360 c0 -93 1 -100 20 -100 17 0 19 8 22 83 l3 82 31 3 c49 5
64 -18 64 -99 0 -62 2 -69 20 -69 18 0 20 7 20 84 0 109 -6 116 -106 116 l-74
0 0 -100z"/>
</g>
</svg>
